# xmcd
#
# Track frame offsets: 
#        182
#        16240
#        30780
#        49980
#        69445
#        83192
#        94867
#        110235
#        124562
#        141495
#        157347
#        169890
#        182795
#        193075
#        205547
#
# Disc length: 2939 seconds
#
# Revision: 0
# Processed by: cddbd v1.4PL0 Copyright (c) Steve Scherf et al.
# Submitted via: ExactAudioCopy v0.90b3
#
DISCID=d20b790f
DTITLE=Graeme Jensen - Graeme Jensen
DYEAR=2001
DGENRE=Country
TTITLE0=Surf N Rodeo
TTITLE1=Enough's Enough
TTITLE2=Crosses
TTITLE3=Rest Your Love On Me
TTITLE4=Broken Fences
TTITLE5=Cow-Pat Boogie
TTITLE6=This Land My Home
TTITLE7=You Will Never Have A Broken Heart
TTITLE8=Can't Get You Out Of My Mind
TTITLE9=Hopelessly Yours
TTITLE10=Behind Closed Doors
TTITLE11=Daydream
TTITLE12=Proud Of You
TTITLE13=Shiftin' Sand
TTITLE14=Trashy Women
EXTD=
EXTT0=
EXTT1=
EXTT2=
EXTT3=
EXTT4=
EXTT5=
EXTT6=
EXTT7=
EXTT8=
EXTT9=
EXTT10=
EXTT11=
EXTT12=
EXTT13=
EXTT14=
PLAYORDER=
